<svg xmlns="http://www.w3.org/2000/svg" viewBox="0 0 358.56 76.32"><path d="M2.16,74.16L23.76,74.16L23.76,20.16L2.16,20.16Z" style="fill:#6b7280;stroke:#6b7280;stroke-width:2.16;"/><path d="M32.4,74.16L54,74.16L54,2.16L32.4,2.16Z" style="fill:#6b7280;stroke:#6b7280;stroke-width:2.16;"/><path d="M62.64,74.16L84.24,74.16L84.24,38.16L62.64,38.16Z" style="fill:#6b7280;stroke:#6b7280;stroke-width:2.16;"/><path d="M92.88,74.16L114.48,74.16L114.48,20.16L92.88,20.16Z" style="fill:#6b7280;stroke:#6b7280;stroke-width:2.16;"/><path d="M123.12,74.16L144.72,74.16L144.72,56.16L123.12,56.16Z" style="fill:#6b7280;stroke:#6b7280;stroke-width:2.16;"/><path d="M153.36,74.16L174.96,74.16L174.96,38.16L153.36,38.16Z" style="fill:#6b7280;stroke:#6b7280;stroke-width:2.16;"/><path d="M183.6,74.16L205.2,74.16L205.2,56.16L183.6,56.16Z" style="fill:#6b7280;stroke:#6b7280;stroke-width:2.16;"/><path d="M213.84,74.16L235.44,74.16L235.44,68.976L213.84,68.976Z" style="fill:#6b7280;stroke:#6b7280;stroke-width:2.16;"/><path d="M244.08,74.16L265.68,74.16L265.68,56.16L244.08,56.16Z" style="fill:#6b7280;stroke:#6b7280;stroke-width:2.16;"/><path d="M274.32,74.16L295.92,74.16L295.92,68.976L274.32,68.976Z" style="fill:#6b7280;stroke:#6b7280;stroke-width:2.16;"/><path d="M304.56,74.16L326.16,74.16L326.16,56.16L304.56,56.16Z" style="fill:#1a1a1a;stroke:#1a1a1a;stroke-width:2.16;"/><path d="M334.8,74.16L356.4,74.16L356.4,68.976L334.8,68.976Z" style="fill:#1a1a1a;stroke:#1a1a1a;stroke-width:2.16;"/></svg>
