<svg xmlns="http://www.w3.org/2000/svg" viewBox="0 0 810.72 563.931"><path d="M88.56,195.925L225.36,195.925" style="fill:none;stroke:#d1d5db;stroke-width:1.4472;"/><path d="M353.203,160.243L443.117,202.808" style="fill:none;stroke:#d1d5db;stroke-width:3;"/><path d="M290.16,233.365L290.16,351.445" style="fill:none;stroke:#d1d5db;stroke-width:4.5;"/><path d="M626.803,202.808L651.917,373.363" style="fill:none;stroke:#d1d5db;stroke-width:4.5;"/><path d="M534.96,204.565L506.16,368.725" style="fill:none;stroke:#d1d5db;stroke-width:6;"/><path d="M651.917,450.488L344.88,383.125" style="fill:none;stroke:#d1d5db;stroke-width:3;"/><path d="M215.76,498.325L796.56,498.325A12,12 0 0 0 808.56,486.325L808.56,308.725A12,12 0 0 0 796.56,296.725L215.76,296.725A12,12 0 0 0 203.76,308.725L203.76,486.325A12,12 0 0 0 215.76,498.325Z" style="fill:none;stroke:#6b7280;stroke-width:1.4472;stroke-dasharray:7.2,7.2;"/><path d="M402.96,239.125L666.96,239.125A12,12 0 0 0 678.96,227.125L678.96,49.525A12,12 0 0 0 666.96,37.525L402.96,37.525A12,12 0 0 0 390.96,49.525L390.96,227.125A12,12 0 0 0 402.96,239.125Z" style="fill:none;stroke:#6b7280;stroke-width:1.4472;stroke-dasharray:7.2,7.2;"/><path d="M8.16,221.845L82.56,221.845A6,6 0 0 0 88.56,215.845L88.56,176.005A6,6 0 0 0 82.56,170.005L8.16,170.005A6,6 0 0 0 2.16,176.005L2.16,215.845A6,6 0 0 0 8.16,221.845Z" style="fill:#f0fdf4;stroke:#1a1a1a;stroke-width:1.5;"/><text font-family="Atkinson Hyperlegible Next, sans-serif" x="45.36" y="195.925" fill="#1a1a1a" text-anchor="middle" dominant-baseline="central">main</text><path d="M231.36,233.365L348.96,233.365A6,6 0 0 0 354.96,227.365L354.96,164.485A6,6 0 0 0 348.96,158.485L231.36,158.485A6,6 0 0 0 225.36,164.485L225.36,233.365A6,6 0 0 0 231.36,233.365Z" style="fill:#f0fdf4;stroke:#1a1a1a;stroke-width:1.5;"/><text font-family="Atkinson Hyperlegible Next, sans-serif" x="290.16" y="195.925" fill="#1a1a1a" text-anchor="middle" dominant-baseline="central">server</text><path d="M447.36,204.565L622.56,204.565A6,6 0 0 0 628.56,198.565L628.56,106.885A6,6 0 0 0 622.56,100.885L447.36,100.885A6,6 0 0 0 441.36,106.885L441.36,198.565A6,6 0 0 0 447.36,204.565Z" style="fill:#fafafa;stroke:#1a1a1a;stroke-width:4.5;"/><text font-family="Atkinson Hyperlegible Next, sans-serif" x="534.96" y="152.725" fill="#1a1a1a" text-anchor="middle" dominant-baseline="central">relay</text><path d="M432.96,455.125L579.36,455.125A6,6 0 0 0 585.36,449.125L585.36,374.725A6,6 0 0 0 579.36,368.725L432.96,368.725A6,6 0 0 0 426.96,374.725L426.96,455.125A6,6 0 0 0 432.96,455.125Z" style="fill:#f0fdf4;stroke:#1a1a1a;stroke-width:1.5;"/><text font-family="Atkinson Hyperlegible Next, sans-serif" x="506.16" y="411.925" fill="#1a1a1a" text-anchor="middle" dominant-baseline="central">channel</text><path d="M656.16,452.245L788.16,452.245A6,6 0 0 0 794.16,446.245L794.16,377.605A6,6 0 0 0 788.16,371.605L656.16,371.605A6,6 0 0 0 650.16,377.605L650.16,446.245A6,6 0 0 0 656.16,452.245Z" style="fill:#fafafa;stroke:#1a1a1a;stroke-width:6;"/><text font-family="Atkinson Hyperlegible Next, sans-serif" x="722.16" y="411.925" fill="#1a1a1a" text-anchor="middle" dominant-baseline="central">auth</text><path d="M241.44,414.805L338.88,414.805A6,6 0 0 0 344.88,408.805L344.88,357.445A6,6 0 0 0 338.88,351.445L241.44,351.445A6,6 0 0 0 235.44,357.445L235.44,414.805A6,6 0 0 0 241.44,414.805Z" style="fill:#fafafa;stroke:#1a1a1a;stroke-width:3;"/><text font-family="Atkinson Hyperlegible Next, sans-serif" x="290.16" y="383.125" fill="#1a1a1a" text-anchor="middle" dominant-baseline="central">config</text><path d="M659.16,447.745L785.16,447.745A4.5,4.5 0 0 0 789.66,443.245L789.66,380.605A4.5,4.5 0 0 0 785.16,376.105L659.16,376.105A4.5,4.5 0 0 0 654.66,380.605L654.66,443.245A4.5,4.5 0 0 0 659.16,447.745Z" style="fill:#fafafa;stroke:#dc2626;stroke-width:1.5;"/><text font-family="Atkinson Hyperlegible Next, sans-serif" x="722.16" y="411.925" fill="#1a1a1a" text-anchor="middle" dominant-baseline="central">auth</text><text font-family="Atkinson Hyperlegible Next, sans-serif" x="288.606" y="468.171" fill="#6b7280" text-anchor="middle" dominant-baseline="central">auth boundary</text><text font-family="Atkinson Hyperlegible Next, sans-serif" x="450.462" y="17.28" fill="#6b7280" text-anchor="middle" dominant-baseline="central">ws input</text><text font-family="Atkinson Hyperlegible Next, sans-serif" x="609.523" y="114.163" fill="#6b7280" text-anchor="middle" dominant-baseline="central">2</text><text font-family="Atkinson Hyperlegible Next, sans-serif" x="775.123" y="384.883" fill="#6b7280" text-anchor="middle" dominant-baseline="central">3</text><text font-family="Atkinson Hyperlegible Next, sans-serif" x="331.603" y="361.843" fill="#6b7280" text-anchor="middle" dominant-baseline="central">1</text><text font-family="Atkinson Hyperlegible Next, sans-serif" x="225.095" y="531.531" fill="#6b7280" font-style="italic" text-anchor="start" dominant-baseline="central">node size = code volume</text><text font-family="Atkinson Hyperlegible Next, sans-serif" x="225.095" y="551.691" fill="#6b7280" font-style="italic" text-anchor="start" dominant-baseline="central">border weight = finding density</text><text font-family="Atkinson Hyperlegible Next, sans-serif" x="225.095" y="571.851" fill="#6b7280" font-style="italic" text-anchor="start" dominant-baseline="central">dashed = trust boundaries</text></svg>
